<svg width="300" height="50" viewBox="0 0 114 16" fill="none" xmlns="http://www.w3.org/2000/svg">
<path d="M26.4372 12H23.3435V3.27273H26.4628C27.3406 3.27273 28.0963 3.44744 28.7298 3.79688C29.3634 4.14347 29.8506 4.64205 30.1915 5.29261C30.5352 5.94318 30.7071 6.72159 30.7071 7.62784C30.7071 8.53693 30.5352 9.31818 30.1915 9.97159C29.8506 10.625 29.3605 11.1264 28.7213 11.4759C28.085 11.8253 27.3236 12 26.4372 12ZM25.1887 10.419H26.3605C26.906 10.419 27.3648 10.3224 27.7369 10.1293C28.1119 9.93324 28.3932 9.63068 28.5807 9.22159C28.771 8.80966 28.8662 8.27841 28.8662 7.62784C28.8662 6.98295 28.771 6.45597 28.5807 6.04688C28.3932 5.63778 28.1134 5.33665 27.7412 5.14347C27.3691 4.95028 26.9102 4.85369 26.3648 4.85369H25.1887V10.419ZM35.0228 12.1278C34.3495 12.1278 33.77 11.9915 33.2842 11.7188C32.8012 11.4432 32.4291 11.054 32.1677 10.5511C31.9063 10.0455 31.7757 9.44744 31.7757 8.7571C31.7757 8.08381 31.9063 7.4929 32.1677 6.98438C32.4291 6.47585 32.797 6.07955 33.2714 5.79545C33.7487 5.51136 34.3083 5.36932 34.9504 5.36932C35.3822 5.36932 35.7842 5.43892 36.1563 5.57812C36.5313 5.71449 36.858 5.92045 37.1365 6.19602C37.4177 6.47159 37.6365 6.81818 37.7927 7.2358C37.949 7.65057 38.0271 8.13636 38.0271 8.69318V9.19176H32.5001V8.06676H36.3183C36.3183 7.8054 36.2615 7.57386 36.1478 7.37216C36.0342 7.17045 35.8765 7.01278 35.6748 6.89915C35.4759 6.78267 35.2444 6.72443 34.9802 6.72443C34.7046 6.72443 34.4603 6.78835 34.2472 6.91619C34.037 7.04119 33.8722 7.21023 33.7529 7.4233C33.6336 7.63352 33.5725 7.8679 33.5697 8.12642V9.19602C33.5697 9.51989 33.6294 9.79972 33.7487 10.0355C33.8708 10.2713 34.0427 10.4531 34.2643 10.581C34.4859 10.7088 34.7487 10.7727 35.0526 10.7727C35.2544 10.7727 35.439 10.7443 35.6066 10.6875C35.7742 10.6307 35.9177 10.5455 36.037 10.4318C36.1563 10.3182 36.2472 10.179 36.3097 10.0142L37.9887 10.125C37.9035 10.5284 37.7288 10.8807 37.4646 11.1818C37.2032 11.4801 36.8651 11.7131 36.4504 11.8807C36.0384 12.0455 35.5626 12.1278 35.0228 12.1278ZM41.0271 8.21591V12H39.2117V5.45455H40.9419V6.60938H41.0186C41.1634 6.22869 41.4063 5.92756 41.7472 5.70597C42.0882 5.48153 42.5015 5.36932 42.9873 5.36932C43.4419 5.36932 43.8382 5.46875 44.1762 5.66761C44.5143 5.86648 44.7771 6.15057 44.9646 6.51989C45.1521 6.88636 45.2458 7.32386 45.2458 7.83239V12H43.4305V8.15625C43.4333 7.75568 43.3311 7.44318 43.1237 7.21875C42.9163 6.99148 42.6308 6.87784 42.2671 6.87784C42.0228 6.87784 41.8069 6.9304 41.6194 7.03551C41.4347 7.14062 41.2899 7.29403 41.1847 7.49574C41.0825 7.6946 41.0299 7.93466 41.0271 8.21591ZM50.1581 5.45455V6.81818H46.2164V5.45455H50.1581ZM47.1112 3.88636H48.9266V9.98864C48.9266 10.1562 48.9521 10.2869 49.0033 10.3807C49.0544 10.4716 49.1254 10.5355 49.2164 10.5724C49.3101 10.6094 49.4181 10.6278 49.5402 10.6278C49.6254 10.6278 49.7107 10.6207 49.7959 10.6065C49.8811 10.5895 49.9465 10.5767 49.9919 10.5682L50.2774 11.919C50.1865 11.9474 50.0587 11.9801 49.8939 12.017C49.7291 12.0568 49.5289 12.081 49.2931 12.0895C48.8556 12.1065 48.472 12.0483 48.1425 11.9148C47.8158 11.7812 47.5615 11.5739 47.3797 11.2926C47.1979 11.0114 47.1084 10.6562 47.1112 10.2273V3.88636ZM53.2071 12.1236C52.7895 12.1236 52.4173 12.0511 52.0906 11.9062C51.7639 11.7585 51.5054 11.5412 51.3151 11.2543C51.1276 10.9645 51.0338 10.6037 51.0338 10.1719C51.0338 9.80824 51.1006 9.50284 51.2341 9.25568C51.3676 9.00852 51.5494 8.80966 51.7796 8.65909C52.0097 8.50852 52.271 8.39489 52.5637 8.31818C52.8591 8.24148 53.1688 8.1875 53.4926 8.15625C53.8733 8.11648 54.1801 8.07955 54.4131 8.04545C54.646 8.00852 54.8151 7.95455 54.9202 7.88352C55.0253 7.8125 55.0779 7.70739 55.0779 7.56818V7.54261C55.0779 7.27273 54.9926 7.06392 54.8222 6.91619C54.6546 6.76847 54.4159 6.6946 54.1063 6.6946C53.7796 6.6946 53.5196 6.76705 53.3264 6.91193C53.1333 7.05398 53.0054 7.23295 52.9429 7.44886L51.2639 7.3125C51.3492 6.91477 51.5168 6.57102 51.7668 6.28125C52.0168 5.98864 52.3392 5.7642 52.7341 5.60795C53.1318 5.44886 53.5921 5.36932 54.1148 5.36932C54.4784 5.36932 54.8264 5.41193 55.1588 5.49716C55.4941 5.58239 55.7909 5.71449 56.0494 5.89347C56.3108 6.07244 56.5168 6.30256 56.6673 6.58381C56.8179 6.86222 56.8932 7.19602 56.8932 7.58523V12H55.1716V11.0923H55.1205C55.0154 11.2969 54.8747 11.4773 54.6986 11.6335C54.5225 11.7869 54.3108 11.9077 54.0637 11.9957C53.8165 12.081 53.531 12.1236 53.2071 12.1236ZM53.727 10.8707C53.9941 10.8707 54.2298 10.8182 54.4344 10.7131C54.6389 10.6051 54.7994 10.4602 54.9159 10.2784C55.0324 10.0966 55.0906 9.89062 55.0906 9.66051V8.96591C55.0338 9.00284 54.9557 9.03693 54.8563 9.06818C54.7597 9.09659 54.6503 9.12358 54.5281 9.14915C54.406 9.17187 54.2838 9.19318 54.1617 9.21307C54.0395 9.23011 53.9287 9.24574 53.8293 9.25994C53.6162 9.29119 53.4301 9.34091 53.271 9.40909C53.1119 9.47727 52.9884 9.5696 52.9003 9.68608C52.8122 9.79972 52.7682 9.94176 52.7682 10.1122C52.7682 10.3594 52.8577 10.5483 53.0367 10.679C53.2185 10.8068 53.4486 10.8707 53.727 10.8707ZM60.1169 3.27273V12H58.3016V3.27273H60.1169Z" fill="#0F766E"/>
<path d="M69.3055 6.32812H67.439C67.4049 6.08665 67.3353 5.87216 67.2302 5.68466C67.1251 5.49432 66.9901 5.33239 66.8254 5.19886C66.6606 5.06534 66.4703 4.96307 66.2544 4.89205C66.0413 4.82102 65.8097 4.78551 65.5597 4.78551C65.108 4.78551 64.7146 4.89773 64.3794 5.12216C64.0441 5.34375 63.7842 5.66761 63.5995 6.09375C63.4149 6.51705 63.3225 7.03125 63.3225 7.63636C63.3225 8.25852 63.4149 8.78125 63.5995 9.20455C63.787 9.62784 64.0484 9.94744 64.3836 10.1634C64.7188 10.3793 65.1066 10.4872 65.547 10.4872C65.7941 10.4872 66.0228 10.4545 66.233 10.3892C66.4461 10.3239 66.635 10.2287 66.7998 10.1037C66.9646 9.97585 67.1009 9.82102 67.2089 9.6392C67.3197 9.45739 67.3964 9.25 67.439 9.01705L69.3055 9.02557C69.2572 9.42614 69.1365 9.8125 68.9433 10.1847C68.7529 10.554 68.4958 10.8849 68.172 11.1776C67.8509 11.4673 67.4674 11.6974 67.0214 11.8679C66.5782 12.0355 66.0768 12.1193 65.5171 12.1193C64.7387 12.1193 64.0427 11.9432 63.4291 11.5909C62.8183 11.2386 62.3353 10.7287 61.9802 10.0611C61.6279 9.39347 61.4518 8.58523 61.4518 7.63636C61.4518 6.68466 61.6308 5.875 61.9887 5.20739C62.3467 4.53977 62.8325 4.03125 63.4461 3.68182C64.0597 3.32955 64.7501 3.15341 65.5171 3.15341C66.0228 3.15341 66.4916 3.22443 66.9234 3.36648C67.358 3.50852 67.743 3.71591 68.0782 3.98864C68.4134 4.25852 68.6862 4.58949 68.8964 4.98153C69.1095 5.37358 69.2458 5.82244 69.3055 6.32812ZM72.461 12.1236C72.0434 12.1236 71.6713 12.0511 71.3445 11.9062C71.0178 11.7585 70.7593 11.5412 70.569 11.2543C70.3815 10.9645 70.2877 10.6037 70.2877 10.1719C70.2877 9.80824 70.3545 9.50284 70.488 9.25568C70.6215 9.00852 70.8034 8.80966 71.0335 8.65909C71.2636 8.50852 71.5249 8.39489 71.8176 8.31818C72.113 8.24148 72.4227 8.1875 72.7465 8.15625C73.1272 8.11648 73.434 8.07955 73.667 8.04545C73.8999 8.00852 74.069 7.95455 74.1741 7.88352C74.2792 7.8125 74.3318 7.70739 74.3318 7.56818V7.54261C74.3318 7.27273 74.2465 7.06392 74.0761 6.91619C73.9085 6.76847 73.6698 6.6946 73.3602 6.6946C73.0335 6.6946 72.7735 6.76705 72.5803 6.91193C72.3872 7.05398 72.2593 7.23295 72.1968 7.44886L70.5178 7.3125C70.6031 6.91477 70.7707 6.57102 71.0207 6.28125C71.2707 5.98864 71.5931 5.7642 71.988 5.60795C72.3857 5.44886 72.846 5.36932 73.3687 5.36932C73.7323 5.36932 74.0803 5.41193 74.4127 5.49716C74.748 5.58239 75.0448 5.71449 75.3034 5.89347C75.5647 6.07244 75.7707 6.30256 75.9213 6.58381C76.0718 6.86222 76.1471 7.19602 76.1471 7.58523V12H74.4255V11.0923H74.3744C74.2693 11.2969 74.1286 11.4773 73.9525 11.6335C73.7764 11.7869 73.5647 11.9077 73.3176 11.9957C73.0704 12.081 72.7849 12.1236 72.461 12.1236ZM72.9809 10.8707C73.248 10.8707 73.4838 10.8182 73.6883 10.7131C73.8928 10.6051 74.0534 10.4602 74.1698 10.2784C74.2863 10.0966 74.3445 9.89062 74.3445 9.66051V8.96591C74.2877 9.00284 74.2096 9.03693 74.1102 9.06818C74.0136 9.09659 73.9042 9.12358 73.782 9.14915C73.6599 9.17187 73.5377 9.19318 73.4156 9.21307C73.2934 9.23011 73.1826 9.24574 73.0832 9.25994C72.8701 9.29119 72.684 9.34091 72.5249 9.40909C72.3659 9.47727 72.2423 9.5696 72.1542 9.68608C72.0661 9.79972 72.0221 9.94176 72.0221 10.1122C72.0221 10.3594 72.1116 10.5483 72.2906 10.679C72.4724 10.8068 72.7025 10.8707 72.9809 10.8707ZM77.5555 12V5.45455H79.3154V6.59659H79.3836C79.5029 6.19034 79.7032 5.88352 79.9845 5.67614C80.2657 5.46591 80.5896 5.3608 80.9561 5.3608C81.047 5.3608 81.145 5.36648 81.2501 5.37784C81.3552 5.3892 81.4475 5.40483 81.5271 5.42472V7.03551C81.4419 7.00994 81.324 6.98722 81.1734 6.96733C81.0228 6.94744 80.885 6.9375 80.76 6.9375C80.493 6.9375 80.2544 6.99574 80.0441 7.11222C79.8367 7.22585 79.672 7.38494 79.5498 7.58949C79.4305 7.79403 79.3708 8.02983 79.3708 8.29688V12H77.5555ZM85.1439 12.1278C84.4706 12.1278 83.8911 11.9915 83.4053 11.7188C82.9223 11.4432 82.5502 11.054 82.2888 10.5511C82.0274 10.0455 81.8968 9.44744 81.8968 8.7571C81.8968 8.08381 82.0274 7.4929 82.2888 6.98438C82.5502 6.47585 82.9181 6.07955 83.3925 5.79545C83.8698 5.51136 84.4294 5.36932 85.0715 5.36932C85.5033 5.36932 85.9053 5.43892 86.2774 5.57812C86.6524 5.71449 86.9791 5.92045 87.2575 6.19602C87.5388 6.47159 87.7575 6.81818 87.9138 7.2358C88.07 7.65057 88.1482 8.13636 88.1482 8.69318V9.19176H82.6212V8.06676H86.4394C86.4394 7.8054 86.3825 7.57386 86.2689 7.37216C86.1553 7.17045 85.9976 7.01278 85.7959 6.89915C85.597 6.78267 85.3655 6.72443 85.1013 6.72443C84.8257 6.72443 84.5814 6.78835 84.3683 6.91619C84.1581 7.04119 83.9933 7.21023 83.874 7.4233C83.7547 7.63352 83.6936 7.8679 83.6908 8.12642V9.19602C83.6908 9.51989 83.7504 9.79972 83.8698 10.0355C83.9919 10.2713 84.1638 10.4531 84.3854 10.581C84.607 10.7088 84.8698 10.7727 85.1737 10.7727C85.3754 10.7727 85.5601 10.7443 85.7277 10.6875C85.8953 10.6307 86.0388 10.5455 86.1581 10.4318C86.2774 10.3182 86.3683 10.179 86.4308 10.0142L88.1098 10.125C88.0246 10.5284 87.8499 10.8807 87.5857 11.1818C87.3243 11.4801 86.9862 11.7131 86.5715 11.8807C86.1595 12.0455 85.6837 12.1278 85.1439 12.1278Z" fill="#16C16F"/>
<rect x="0.717354" y="0.103407" width="4.62195" height="14.9456" rx="2.31098" transform="matrix(0.814905 -0.578657 0.619803 0.785471 4.12899 3.80234)" fill="#FEFEFE" stroke="#16C16F"/>
<rect x="0.723853" y="0.0463004" width="6.83568" height="4.21245" rx="2.10622" transform="matrix(0.767009 -0.640751 0.680696 0.733352 13.3302 10.7805)" fill="#FFFEFE" stroke="#16C16F"/>
<rect x="0.714446" y="0.120534" width="7.08346" height="4.17448" rx="2.08724" transform="matrix(0.82837 -0.55923 0.600523 0.800298 0.102971 6.38607)" fill="#FFFEFE" stroke="#16C16F"/>
</svg>



