<svg width="400" height="60" viewBox="0 0 157 31" fill="none" xmlns="http://www.w3.org/2000/svg">
<path d="M34.0915 5.78267C34.0574 5.43892 33.9111 5.17187 33.6526 4.98153C33.3941 4.79119 33.0432 4.69602 32.6001 4.69602C32.2989 4.69602 32.0447 4.73864 31.8373 4.82386C31.6299 4.90625 31.4708 5.02131 31.36 5.16903C31.252 5.31676 31.1981 5.48438 31.1981 5.67188C31.1924 5.82812 31.2251 5.96449 31.2961 6.08097C31.3699 6.19744 31.4708 6.2983 31.5986 6.38352C31.7265 6.46591 31.8742 6.53835 32.0418 6.60085C32.2094 6.66051 32.3884 6.71165 32.5787 6.75426L33.3628 6.94176C33.7435 7.02699 34.093 7.14062 34.4111 7.28267C34.7293 7.42472 35.0049 7.59943 35.2378 7.80682C35.4708 8.0142 35.6512 8.25852 35.779 8.53977C35.9097 8.82102 35.9765 9.14347 35.9793 9.5071C35.9765 10.0412 35.8401 10.5043 35.5702 10.8963C35.3032 11.2855 34.9168 11.5881 34.4111 11.804C33.9083 12.017 33.3018 12.1236 32.5915 12.1236C31.887 12.1236 31.2733 12.0156 30.7506 11.7997C30.2307 11.5838 29.8245 11.2642 29.5319 10.8409C29.2421 10.4148 29.0901 9.88778 29.0759 9.25994H30.8614C30.8813 9.55256 30.9651 9.79687 31.1128 9.9929C31.2634 10.1861 31.4637 10.3324 31.7137 10.4318C31.9665 10.5284 32.252 10.5767 32.5702 10.5767C32.8827 10.5767 33.154 10.5312 33.3841 10.4403C33.6171 10.3494 33.7975 10.223 33.9253 10.0611C34.0532 9.89915 34.1171 9.71307 34.1171 9.50284C34.1171 9.30682 34.0589 9.14205 33.9424 9.00852C33.8287 8.875 33.6611 8.76136 33.4395 8.66761C33.2208 8.57386 32.9523 8.48864 32.6341 8.41193L31.6839 8.1733C30.9481 7.99432 30.3671 7.71449 29.941 7.33381C29.5148 6.95312 29.3032 6.44034 29.306 5.79545C29.3032 5.26705 29.4438 4.8054 29.7279 4.41051C30.0148 4.01562 30.4083 3.70739 30.9083 3.4858C31.4083 3.2642 31.9765 3.15341 32.6128 3.15341C33.2606 3.15341 33.8259 3.2642 34.3089 3.4858C34.7947 3.70739 35.1725 4.01562 35.4424 4.41051C35.7123 4.8054 35.8515 5.26278 35.86 5.78267H34.0915ZM39.0017 8.21591V12H37.1863V3.27273H38.9506V6.60938H39.0273C39.175 6.22301 39.4136 5.92045 39.7432 5.7017C40.0727 5.48011 40.4861 5.36932 40.9832 5.36932C41.4378 5.36932 41.8341 5.46875 42.1721 5.66761C42.5131 5.86364 42.7773 6.14631 42.9648 6.51562C43.1551 6.8821 43.2488 7.32102 43.246 7.83239V12H41.4307V8.15625C41.4335 7.75284 41.3312 7.43892 41.1238 7.21449C40.9193 6.99006 40.6324 6.87784 40.2631 6.87784C40.0159 6.87784 39.7971 6.9304 39.6068 7.03551C39.4193 7.14062 39.2716 7.29403 39.1636 7.49574C39.0585 7.6946 39.0045 7.93466 39.0017 8.21591ZM46.5411 12.1236C46.1235 12.1236 45.7513 12.0511 45.4246 11.9062C45.0979 11.7585 44.8394 11.5412 44.6491 11.2543C44.4616 10.9645 44.3678 10.6037 44.3678 10.1719C44.3678 9.80824 44.4346 9.50284 44.5681 9.25568C44.7016 9.00852 44.8834 8.80966 45.1135 8.65909C45.3437 8.50852 45.605 8.39489 45.8976 8.31818C46.1931 8.24148 46.5028 8.1875 46.8266 8.15625C47.2073 8.11648 47.5141 8.07955 47.7471 8.04545C47.98 8.00852 48.1491 7.95455 48.2542 7.88352C48.3593 7.8125 48.4118 7.70739 48.4118 7.56818V7.54261C48.4118 7.27273 48.3266 7.06392 48.1562 6.91619C47.9885 6.76847 47.7499 6.6946 47.4403 6.6946C47.1135 6.6946 46.8536 6.76705 46.6604 6.91193C46.4672 7.05398 46.3394 7.23295 46.2769 7.44886L44.5979 7.3125C44.6831 6.91477 44.8508 6.57102 45.1008 6.28125C45.3508 5.98864 45.6732 5.7642 46.0681 5.60795C46.4658 5.44886 46.926 5.36932 47.4488 5.36932C47.8124 5.36932 48.1604 5.41193 48.4928 5.49716C48.828 5.58239 49.1249 5.71449 49.3834 5.89347C49.6448 6.07244 49.8508 6.30256 50.0013 6.58381C50.1519 6.86222 50.2272 7.19602 50.2272 7.58523V12H48.5056V11.0923H48.4545C48.3493 11.2969 48.2087 11.4773 48.0326 11.6335C47.8564 11.7869 47.6448 11.9077 47.3976 11.9957C47.1505 12.081 46.865 12.1236 46.5411 12.1236ZM47.061 10.8707C47.328 10.8707 47.5638 10.8182 47.7684 10.7131C47.9729 10.6051 48.1334 10.4602 48.2499 10.2784C48.3664 10.0966 48.4246 9.89062 48.4246 9.66051V8.96591C48.3678 9.00284 48.2897 9.03693 48.1903 9.06818C48.0937 9.09659 47.9843 9.12358 47.8621 9.14915C47.74 9.17187 47.6178 9.19318 47.4957 9.21307C47.3735 9.23011 47.2627 9.24574 47.1633 9.25994C46.9502 9.29119 46.7641 9.34091 46.605 9.40909C46.4459 9.47727 46.3224 9.5696 46.2343 9.68608C46.1462 9.79972 46.1022 9.94176 46.1022 10.1122C46.1022 10.3594 46.1917 10.5483 46.3706 10.679C46.5525 10.8068 46.7826 10.8707 47.061 10.8707ZM53.4509 8.21591V12H51.6356V5.45455H53.3657V6.60938H53.4424C53.5873 6.22869 53.8302 5.92756 54.1711 5.70597C54.512 5.48153 54.9253 5.36932 55.4111 5.36932C55.8657 5.36932 56.262 5.46875 56.6001 5.66761C56.9381 5.86648 57.2009 6.15057 57.3884 6.51989C57.5759 6.88636 57.6697 7.32386 57.6697 7.83239V12H55.8543V8.15625C55.8572 7.75568 55.7549 7.44318 55.5475 7.21875C55.3401 6.99148 55.0546 6.87784 54.691 6.87784C54.4466 6.87784 54.2307 6.9304 54.0432 7.03551C53.8586 7.14062 53.7137 7.29403 53.6086 7.49574C53.5063 7.6946 53.4537 7.93466 53.4509 8.21591ZM62.5819 5.45455V6.81818H58.6402V5.45455H62.5819ZM59.5351 3.88636H61.3504V9.98864C61.3504 10.1562 61.376 10.2869 61.4271 10.3807C61.4782 10.4716 61.5493 10.5355 61.6402 10.5724C61.7339 10.6094 61.8419 10.6278 61.964 10.6278C62.0493 10.6278 62.1345 10.6207 62.2197 10.6065C62.305 10.5895 62.3703 10.5767 62.4157 10.5682L62.7013 11.919C62.6104 11.9474 62.4825 11.9801 62.3177 12.017C62.153 12.0568 61.9527 12.081 61.7169 12.0895C61.2794 12.1065 60.8959 12.0483 60.5663 11.9148C60.2396 11.7812 59.9854 11.5739 59.8035 11.2926C59.6217 11.0114 59.5322 10.6562 59.5351 10.2273V3.88636ZM63.7645 12V5.45455H65.5798V12H63.7645ZM64.6764 4.6108C64.4065 4.6108 64.175 4.52131 63.9818 4.34233C63.7915 4.16051 63.6963 3.94318 63.6963 3.69034C63.6963 3.44034 63.7915 3.22585 63.9818 3.04688C64.175 2.86506 64.4065 2.77415 64.6764 2.77415C64.9463 2.77415 65.1764 2.86506 65.3667 3.04688C65.5599 3.22585 65.6565 3.44034 65.6565 3.69034C65.6565 3.94318 65.5599 4.16051 65.3667 4.34233C65.1764 4.52131 64.9463 4.6108 64.6764 4.6108ZM32.4509 27H29.3572V18.2727H32.4765C33.3543 18.2727 34.11 18.4474 34.7435 18.7969C35.377 19.1435 35.8643 19.642 36.2052 20.2926C36.5489 20.9432 36.7208 21.7216 36.7208 22.6278C36.7208 23.5369 36.5489 24.3182 36.2052 24.9716C35.8643 25.625 35.3742 26.1264 34.735 26.4759C34.0986 26.8253 33.3373 27 32.4509 27ZM31.2023 25.419H32.3742C32.9197 25.419 33.3785 25.3224 33.7506 25.1293C34.1256 24.9332 34.4069 24.6307 34.5944 24.2216C34.7847 23.8097 34.8799 23.2784 34.8799 22.6278C34.8799 21.983 34.7847 21.456 34.5944 21.0469C34.4069 20.6378 34.127 20.3366 33.7549 20.1435C33.3827 19.9503 32.9239 19.8537 32.3785 19.8537H31.2023V25.419ZM41.0365 27.1278C40.3632 27.1278 39.7836 26.9915 39.2979 26.7188C38.8149 26.4432 38.4427 26.054 38.1814 25.5511C37.92 25.0455 37.7893 24.4474 37.7893 23.7571C37.7893 23.0838 37.92 22.4929 38.1814 21.9844C38.4427 21.4759 38.8106 21.0795 39.2851 20.7955C39.7623 20.5114 40.322 20.3693 40.964 20.3693C41.3959 20.3693 41.7979 20.4389 42.17 20.5781C42.545 20.7145 42.8717 20.9205 43.1501 21.196C43.4314 21.4716 43.6501 21.8182 43.8064 22.2358C43.9626 22.6506 44.0407 23.1364 44.0407 23.6932V24.1918H38.5138V23.0668H42.3319C42.3319 22.8054 42.2751 22.5739 42.1615 22.3722C42.0479 22.1705 41.8902 22.0128 41.6885 21.8991C41.4896 21.7827 41.2581 21.7244 40.9939 21.7244C40.7183 21.7244 40.474 21.7884 40.2609 21.9162C40.0507 22.0412 39.8859 22.2102 39.7666 22.4233C39.6473 22.6335 39.5862 22.8679 39.5834 23.1264V24.196C39.5834 24.5199 39.643 24.7997 39.7623 25.0355C39.8845 25.2713 40.0564 25.4531 40.278 25.581C40.4996 25.7088 40.7623 25.7727 41.0663 25.7727C41.268 25.7727 41.4527 25.7443 41.6203 25.6875C41.7879 25.6307 41.9314 25.5455 42.0507 25.4318C42.17 25.3182 42.2609 25.179 42.3234 25.0142L44.0024 25.125C43.9172 25.5284 43.7425 25.8807 43.4782 26.1818C43.2169 26.4801 42.8788 26.7131 42.464 26.8807C42.0521 27.0455 41.5763 27.1278 41.0365 27.1278ZM47.0407 23.2159V27H45.2254V20.4545H46.9555V21.6094H47.0322C47.1771 21.2287 47.42 20.9276 47.7609 20.706C48.1018 20.4815 48.5152 20.3693 49.001 20.3693C49.4555 20.3693 49.8518 20.4688 50.1899 20.6676C50.528 20.8665 50.7907 21.1506 50.9782 21.5199C51.1657 21.8864 51.2595 22.3239 51.2595 22.8324V27H49.4442V23.1562C49.447 22.7557 49.3447 22.4432 49.1373 22.2188C48.93 21.9915 48.6444 21.8778 48.2808 21.8778C48.0365 21.8778 47.8206 21.9304 47.6331 22.0355C47.4484 22.1406 47.3035 22.294 47.1984 22.4957C47.0961 22.6946 47.0436 22.9347 47.0407 23.2159ZM56.1718 20.4545V21.8182H52.23V20.4545H56.1718ZM53.1249 18.8864H54.9403V24.9886C54.9403 25.1562 54.9658 25.2869 55.017 25.3807C55.0681 25.4716 55.1391 25.5355 55.23 25.5724C55.3238 25.6094 55.4317 25.6278 55.5539 25.6278C55.6391 25.6278 55.7243 25.6207 55.8096 25.6065C55.8948 25.5895 55.9601 25.5767 56.0056 25.5682L56.2911 26.919C56.2002 26.9474 56.0724 26.9801 55.9076 27.017C55.7428 27.0568 55.5425 27.081 55.3067 27.0895C54.8692 27.1065 54.4857 27.0483 54.1562 26.9148C53.8295 26.7812 53.5752 26.5739 53.3934 26.2926C53.2116 26.0114 53.1221 25.6562 53.1249 25.2273V18.8864ZM59.2208 27.1236C58.8032 27.1236 58.431 27.0511 58.1043 26.9062C57.7776 26.7585 57.5191 26.5412 57.3287 26.2543C57.1412 25.9645 57.0475 25.6037 57.0475 25.1719C57.0475 24.8082 57.1143 24.5028 57.2478 24.2557C57.3813 24.0085 57.5631 23.8097 57.7932 23.6591C58.0233 23.5085 58.2847 23.3949 58.5773 23.3182C58.8728 23.2415 59.1824 23.1875 59.5063 23.1562C59.887 23.1165 60.1938 23.0795 60.4268 23.0455C60.6597 23.0085 60.8287 22.9545 60.9339 22.8835C61.039 22.8125 61.0915 22.7074 61.0915 22.5682V22.5426C61.0915 22.2727 61.0063 22.0639 60.8358 21.9162C60.6682 21.7685 60.4296 21.6946 60.1199 21.6946C59.7932 21.6946 59.5333 21.767 59.3401 21.9119C59.1469 22.054 59.0191 22.233 58.9566 22.4489L57.2776 22.3125C57.3628 21.9148 57.5305 21.571 57.7805 21.2812C58.0305 20.9886 58.3529 20.7642 58.7478 20.608C59.1455 20.4489 59.6057 20.3693 60.1285 20.3693C60.4921 20.3693 60.8401 20.4119 61.1725 20.4972C61.5077 20.5824 61.8046 20.7145 62.0631 20.8935C62.3245 21.0724 62.5305 21.3026 62.681 21.5838C62.8316 21.8622 62.9069 22.196 62.9069 22.5852V27H61.1853V26.0923H61.1341C61.029 26.2969 60.8884 26.4773 60.7123 26.6335C60.5361 26.7869 60.3245 26.9077 60.0773 26.9957C59.8302 27.081 59.5447 27.1236 59.2208 27.1236ZM59.7407 25.8707C60.0077 25.8707 60.2435 25.8182 60.4481 25.7131C60.6526 25.6051 60.8131 25.4602 60.9296 25.2784C61.0461 25.0966 61.1043 24.8906 61.1043 24.6605V23.9659C61.0475 24.0028 60.9694 24.0369 60.8699 24.0682C60.7733 24.0966 60.664 24.1236 60.5418 24.1491C60.4197 24.1719 60.2975 24.1932 60.1753 24.2131C60.0532 24.2301 59.9424 24.2457 59.843 24.2599C59.6299 24.2912 59.4438 24.3409 59.2847 24.4091C59.1256 24.4773 59.002 24.5696 58.914 24.6861C58.8259 24.7997 58.7819 24.9418 58.7819 25.1122C58.7819 25.3594 58.8714 25.5483 59.0503 25.679C59.2322 25.8068 59.4623 25.8707 59.7407 25.8707ZM66.1306 18.2727V27H64.3153V18.2727H66.1306Z" fill="#0F766E"/>
<path d="M67.0681 3.27273H69.3437L71.7471 9.13636H71.8493L74.2528 3.27273H76.5283V12H74.7385V6.3196H74.6661L72.4076 11.9574H71.1888L68.9303 6.2983H68.8579V12H67.0681V3.27273ZM82.2119 9.21307V5.45455H84.0273V12H82.2844V10.8111H82.2162C82.0684 11.1946 81.8227 11.5028 81.479 11.7358C81.1381 11.9687 80.7219 12.0852 80.2304 12.0852C79.7929 12.0852 79.4079 11.9858 79.0756 11.7869C78.7432 11.5881 78.4832 11.3054 78.2957 10.9389C78.1111 10.5724 78.0173 10.1335 78.0145 9.62216V5.45455H79.8298V9.2983C79.8327 9.68466 79.9363 9.99006 80.1409 10.2145C80.3454 10.4389 80.6196 10.5511 80.9633 10.5511C81.1821 10.5511 81.3866 10.5014 81.577 10.402C81.7673 10.2997 81.9207 10.1491 82.0372 9.95028C82.1565 9.75142 82.2148 9.50568 82.2119 9.21307ZM87.2947 3.27273V12H85.4793V3.27273H87.2947ZM92.2304 5.45455V6.81818H88.2886V5.45455H92.2304ZM89.1835 3.88636H90.9988V9.98864C90.9988 10.1562 91.0244 10.2869 91.0756 10.3807C91.1267 10.4716 91.1977 10.5355 91.2886 10.5724C91.3824 10.6094 91.4903 10.6278 91.6125 10.6278C91.6977 10.6278 91.7829 10.6207 91.8682 10.6065C91.9534 10.5895 92.0187 10.5767 92.0642 10.5682L92.3497 11.919C92.2588 11.9474 92.1309 11.9801 91.9662 12.017C91.8014 12.0568 91.6011 12.081 91.3653 12.0895C90.9278 12.1065 90.5443 12.0483 90.2148 11.9148C89.8881 11.7812 89.6338 11.5739 89.452 11.2926C89.2702 11.0114 89.1807 10.6562 89.1835 10.2273V3.88636ZM93.4129 12V5.45455H95.2282V12H93.4129ZM94.3248 4.6108C94.055 4.6108 93.8234 4.52131 93.6302 4.34233C93.4399 4.16051 93.3447 3.94318 93.3447 3.69034C93.3447 3.44034 93.4399 3.22585 93.6302 3.04688C93.8234 2.86506 94.055 2.77415 94.3248 2.77415C94.5947 2.77415 94.8248 2.86506 95.0152 3.04688C95.2084 3.22585 95.305 3.44034 95.305 3.69034C95.305 3.94318 95.2084 4.16051 95.0152 4.34233C94.8248 4.52131 94.5947 4.6108 94.3248 4.6108ZM101.451 5.78267C101.417 5.43892 101.271 5.17187 101.012 4.98153C100.753 4.79119 100.403 4.69602 99.9594 4.69602C99.6583 4.69602 99.404 4.73864 99.1966 4.82386C98.9893 4.90625 98.8302 5.02131 98.7194 5.16903C98.6114 5.31676 98.5574 5.48438 98.5574 5.67188C98.5518 5.82812 98.5844 5.96449 98.6555 6.08097C98.7293 6.19744 98.8302 6.2983 98.958 6.38352C99.0858 6.46591 99.2336 6.53835 99.4012 6.60085C99.5688 6.66051 99.7478 6.71165 99.9381 6.75426L100.722 6.94176C101.103 7.02699 101.452 7.14062 101.771 7.28267C102.089 7.42472 102.364 7.59943 102.597 7.80682C102.83 8.0142 103.011 8.25852 103.138 8.53977C103.269 8.82102 103.336 9.14347 103.339 9.5071C103.336 10.0412 103.199 10.5043 102.93 10.8963C102.663 11.2855 102.276 11.5881 101.771 11.804C101.268 12.017 100.661 12.1236 99.9509 12.1236C99.2464 12.1236 98.6327 12.0156 98.11 11.7997C97.5901 11.5838 97.1839 11.2642 96.8912 10.8409C96.6015 10.4148 96.4495 9.88778 96.4353 9.25994H98.2208C98.2407 9.55256 98.3245 9.79687 98.4722 9.9929C98.6228 10.1861 98.8231 10.3324 99.0731 10.4318C99.3259 10.5284 99.6114 10.5767 99.9296 10.5767C100.242 10.5767 100.513 10.5312 100.744 10.4403C100.976 10.3494 101.157 10.223 101.285 10.0611C101.413 9.89915 101.476 9.71307 101.476 9.50284C101.476 9.30682 101.418 9.14205 101.302 9.00852C101.188 8.875 101.021 8.76136 100.799 8.66761C100.58 8.57386 100.312 8.48864 99.9935 8.41193L99.0432 8.1733C98.3074 7.99432 97.7265 7.71449 97.3003 7.33381C96.8742 6.95312 96.6626 6.44034 96.6654 5.79545C96.6626 5.26705 96.8032 4.8054 97.0873 4.41051C97.3742 4.01562 97.7677 3.70739 98.2677 3.4858C98.7677 3.2642 99.3358 3.15341 99.9722 3.15341C100.62 3.15341 101.185 3.2642 101.668 3.4858C102.154 3.70739 102.532 4.01562 102.802 4.41051C103.072 4.8054 103.211 5.26278 103.219 5.78267H101.451ZM104.546 14.4545V5.45455H106.335V6.55398H106.416C106.496 6.37784 106.611 6.19886 106.762 6.01705C106.915 5.83239 107.114 5.67898 107.358 5.55682C107.605 5.43182 107.912 5.36932 108.279 5.36932C108.756 5.36932 109.196 5.49432 109.6 5.74432C110.003 5.99148 110.326 6.36506 110.567 6.86506C110.809 7.36222 110.929 7.9858 110.929 8.7358C110.929 9.46591 110.811 10.0824 110.576 10.5852C110.343 11.0852 110.024 11.4645 109.621 11.723C109.22 11.9787 108.772 12.1065 108.274 12.1065C107.922 12.1065 107.622 12.0483 107.375 11.9318C107.131 11.8153 106.931 11.669 106.774 11.4929C106.618 11.3139 106.499 11.1335 106.416 10.9517H106.361V14.4545H104.546ZM106.323 8.72727C106.323 9.11648 106.377 9.45597 106.485 9.74574C106.593 10.0355 106.749 10.2614 106.953 10.4233C107.158 10.5824 107.407 10.6619 107.699 10.6619C107.995 10.6619 108.245 10.581 108.449 10.419C108.654 10.2543 108.809 10.027 108.914 9.73722C109.022 9.4446 109.076 9.10795 109.076 8.72727C109.076 8.34943 109.023 8.01705 108.918 7.73011C108.813 7.44318 108.658 7.21875 108.453 7.05682C108.249 6.89489 107.997 6.81392 107.699 6.81392C107.404 6.81392 107.154 6.89205 106.949 7.0483C106.747 7.20455 106.593 7.42614 106.485 7.71307C106.377 8 106.323 8.33807 106.323 8.72727ZM115.122 12.1278C114.449 12.1278 113.87 11.9915 113.384 11.7188C112.901 11.4432 112.529 11.054 112.267 10.5511C112.006 10.0455 111.875 9.44744 111.875 8.7571C111.875 8.08381 112.006 7.4929 112.267 6.98438C112.529 6.47585 112.897 6.07955 113.371 5.79545C113.848 5.51136 114.408 5.36932 115.05 5.36932C115.482 5.36932 115.884 5.43892 116.256 5.57812C116.631 5.71449 116.958 5.92045 117.236 6.19602C117.517 6.47159 117.736 6.81818 117.892 7.2358C118.049 7.65057 118.127 8.13636 118.127 8.69318V9.19176H112.6V8.06676H116.418C116.418 7.8054 116.361 7.57386 116.247 7.37216C116.134 7.17045 115.976 7.01278 115.774 6.89915C115.576 6.78267 115.344 6.72443 115.08 6.72443C114.804 6.72443 114.56 6.78835 114.347 6.91619C114.137 7.04119 113.972 7.21023 113.853 7.4233C113.733 7.63352 113.672 7.8679 113.669 8.12642V9.19602C113.669 9.51989 113.729 9.79972 113.848 10.0355C113.97 10.2713 114.142 10.4531 114.364 10.581C114.585 10.7088 114.848 10.7727 115.152 10.7727C115.354 10.7727 115.539 10.7443 115.706 10.6875C115.874 10.6307 116.017 10.5455 116.137 10.4318C116.256 10.3182 116.347 10.179 116.409 10.0142L118.088 10.125C118.003 10.5284 117.828 10.8807 117.564 11.1818C117.303 11.4801 116.965 11.7131 116.55 11.8807C116.138 12.0455 115.662 12.1278 115.122 12.1278ZM122.269 12.1278C121.598 12.1278 121.022 11.9858 120.539 11.7017C120.059 11.4148 119.689 11.017 119.431 10.5085C119.175 10 119.047 9.41477 119.047 8.75284C119.047 8.08239 119.176 7.49432 119.435 6.98864C119.696 6.48011 120.067 6.08381 120.547 5.79972C121.027 5.51278 121.598 5.36932 122.26 5.36932C122.831 5.36932 123.331 5.47301 123.76 5.6804C124.189 5.88778 124.529 6.17898 124.779 6.55398C125.029 6.92898 125.166 7.36932 125.192 7.875H123.479C123.431 7.5483 123.303 7.28551 123.095 7.08665C122.891 6.88494 122.622 6.78409 122.29 6.78409C122.009 6.78409 121.763 6.8608 121.553 7.0142C121.345 7.16477 121.184 7.38494 121.067 7.67472C120.951 7.96449 120.892 8.31534 120.892 8.72727C120.892 9.14489 120.949 9.5 121.063 9.79261C121.179 10.0852 121.343 10.3082 121.553 10.4616C121.763 10.6151 122.009 10.6918 122.29 10.6918C122.497 10.6918 122.684 10.6491 122.848 10.5639C123.016 10.4787 123.154 10.3551 123.262 10.1932C123.372 10.0284 123.445 9.83097 123.479 9.60085H125.192C125.164 10.1009 125.027 10.5412 124.783 10.9219C124.541 11.2997 124.208 11.5952 123.782 11.8082C123.355 12.0213 122.851 12.1278 122.269 12.1278ZM126.354 12V5.45455H128.17V12H126.354ZM127.266 4.6108C126.996 4.6108 126.765 4.52131 126.572 4.34233C126.381 4.16051 126.286 3.94318 126.286 3.69034C126.286 3.44034 126.381 3.22585 126.572 3.04688C126.765 2.86506 126.996 2.77415 127.266 2.77415C127.536 2.77415 127.766 2.86506 127.957 3.04688C128.15 3.22585 128.246 3.44034 128.246 3.69034C128.246 3.94318 128.15 4.16051 127.957 4.34233C127.766 4.52131 127.536 4.6108 127.266 4.6108ZM131.49 12.1236C131.073 12.1236 130.701 12.0511 130.374 11.9062C130.047 11.7585 129.789 11.5412 129.598 11.2543C129.411 10.9645 129.317 10.6037 129.317 10.1719C129.317 9.80824 129.384 9.50284 129.517 9.25568C129.651 9.00852 129.833 8.80966 130.063 8.65909C130.293 8.50852 130.554 8.39489 130.847 8.31818C131.142 8.24148 131.452 8.1875 131.776 8.15625C132.157 8.11648 132.463 8.07955 132.696 8.04545C132.929 8.00852 133.098 7.95455 133.203 7.88352C133.309 7.8125 133.361 7.70739 133.361 7.56818V7.54261C133.361 7.27273 133.276 7.06392 133.105 6.91619C132.938 6.76847 132.699 6.6946 132.389 6.6946C132.063 6.6946 131.803 6.76705 131.61 6.91193C131.416 7.05398 131.289 7.23295 131.226 7.44886L129.547 7.3125C129.632 6.91477 129.8 6.57102 130.05 6.28125C130.3 5.98864 130.622 5.7642 131.017 5.60795C131.415 5.44886 131.875 5.36932 132.398 5.36932C132.762 5.36932 133.11 5.41193 133.442 5.49716C133.777 5.58239 134.074 5.71449 134.333 5.89347C134.594 6.07244 134.8 6.30256 134.951 6.58381C135.101 6.86222 135.176 7.19602 135.176 7.58523V12H133.455V11.0923H133.404C133.299 11.2969 133.158 11.4773 132.982 11.6335C132.806 11.7869 132.594 11.9077 132.347 11.9957C132.1 12.081 131.814 12.1236 131.49 12.1236ZM132.01 10.8707C132.277 10.8707 132.513 10.8182 132.718 10.7131C132.922 10.6051 133.083 10.4602 133.199 10.2784C133.316 10.0966 133.374 9.89062 133.374 9.66051V8.96591C133.317 9.00284 133.239 9.03693 133.139 9.06818C133.043 9.09659 132.934 9.12358 132.811 9.14915C132.689 9.17187 132.567 9.19318 132.445 9.21307C132.323 9.23011 132.212 9.24574 132.112 9.25994C131.899 9.29119 131.713 9.34091 131.554 9.40909C131.395 9.47727 131.272 9.5696 131.184 9.68608C131.095 9.79972 131.051 9.94176 131.051 10.1122C131.051 10.3594 131.141 10.5483 131.32 10.679C131.502 10.8068 131.732 10.8707 132.01 10.8707ZM138.4 3.27273V12H136.585V3.27273H138.4ZM139.854 12V5.45455H141.67V12H139.854ZM140.766 4.6108C140.496 4.6108 140.265 4.52131 140.072 4.34233C139.881 4.16051 139.786 3.94318 139.786 3.69034C139.786 3.44034 139.881 3.22585 140.072 3.04688C140.265 2.86506 140.496 2.77415 140.766 2.77415C141.036 2.77415 141.266 2.86506 141.457 3.04688C141.65 3.22585 141.746 3.44034 141.746 3.69034C141.746 3.94318 141.65 4.16051 141.457 4.34233C141.266 4.52131 141.036 4.6108 140.766 4.6108ZM146.605 5.45455V6.81818H142.664V5.45455H146.605ZM143.559 3.88636H145.374V9.98864C145.374 10.1562 145.399 10.2869 145.451 10.3807C145.502 10.4716 145.573 10.5355 145.664 10.5724C145.757 10.6094 145.865 10.6278 145.987 10.6278C146.073 10.6278 146.158 10.6207 146.243 10.6065C146.328 10.5895 146.394 10.5767 146.439 10.5682L146.725 11.919C146.634 11.9474 146.506 11.9801 146.341 12.017C146.176 12.0568 145.976 12.081 145.74 12.0895C145.303 12.1065 144.919 12.0483 144.59 11.9148C144.263 11.7812 144.009 11.5739 143.827 11.2926C143.645 11.0114 143.556 10.6562 143.559 10.2273V3.88636ZM148.909 14.4545C148.679 14.4545 148.463 14.4361 148.261 14.3991C148.062 14.3651 147.897 14.321 147.767 14.267L148.176 12.9119C148.389 12.9773 148.581 13.0128 148.751 13.0185C148.924 13.0241 149.073 12.9844 149.198 12.8991C149.326 12.8139 149.43 12.669 149.509 12.4645L149.616 12.1875L147.268 5.45455H149.177L150.532 10.2614H150.6L151.968 5.45455H153.89L151.346 12.7074C151.224 13.0597 151.058 13.3665 150.848 13.6278C150.64 13.892 150.377 14.0952 150.059 14.2372C149.741 14.3821 149.358 14.4545 148.909 14.4545ZM75.3192 21.3281H73.4527C73.4186 21.0866 73.349 20.8722 73.2439 20.6847C73.1388 20.4943 73.0038 20.3324 72.839 20.1989C72.6743 20.0653 72.4839 19.9631 72.268 19.892C72.055 19.821 71.8234 19.7855 71.5734 19.7855C71.1217 19.7855 70.7282 19.8977 70.393 20.1222C70.0578 20.3437 69.7979 20.6676 69.6132 21.0938C69.4285 21.517 69.3362 22.0312 69.3362 22.6364C69.3362 23.2585 69.4285 23.7812 69.6132 24.2045C69.8007 24.6278 70.0621 24.9474 70.3973 25.1634C70.7325 25.3793 71.1203 25.4872 71.5606 25.4872C71.8078 25.4872 72.0365 25.4545 72.2467 25.3892C72.4598 25.3239 72.6487 25.2287 72.8135 25.1037C72.9782 24.9759 73.1146 24.821 73.2226 24.6392C73.3334 24.4574 73.4101 24.25 73.4527 24.017L75.3192 24.0256C75.2709 24.4261 75.1501 24.8125 74.9569 25.1847C74.7666 25.554 74.5095 25.8849 74.1856 26.1776C73.8646 26.4673 73.4811 26.6974 73.0351 26.8679C72.5919 27.0355 72.0905 27.1193 71.5308 27.1193C70.7524 27.1193 70.0564 26.9432 69.4427 26.5909C68.8319 26.2386 68.349 25.7287 67.9939 25.0611C67.6416 24.3935 67.4655 23.5852 67.4655 22.6364C67.4655 21.6847 67.6444 20.875 68.0024 20.2074C68.3604 19.5398 68.8461 19.0312 69.4598 18.6818C70.0734 18.3295 70.7638 18.1534 71.5308 18.1534C72.0365 18.1534 72.5052 18.2244 72.9371 18.3665C73.3717 18.5085 73.7567 18.7159 74.0919 18.9886C74.4271 19.2585 74.6998 19.5895 74.9101 19.9815C75.1231 20.3736 75.2595 20.8224 75.3192 21.3281ZM79.5912 27.1278C78.9179 27.1278 78.3383 26.9915 77.8525 26.7188C77.3696 26.4432 76.9974 26.054 76.7361 25.5511C76.4747 25.0455 76.344 24.4474 76.344 23.7571C76.344 23.0838 76.4747 22.4929 76.7361 21.9844C76.9974 21.4759 77.3653 21.0795 77.8398 20.7955C78.317 20.5114 78.8767 20.3693 79.5187 20.3693C79.9506 20.3693 80.3525 20.4389 80.7247 20.5781C81.0997 20.7145 81.4264 20.9205 81.7048 21.196C81.9861 21.4716 82.2048 21.8182 82.3611 22.2358C82.5173 22.6506 82.5954 23.1364 82.5954 23.6932V24.1918H77.0684V23.0668H80.8866C80.8866 22.8054 80.8298 22.5739 80.7162 22.3722C80.6025 22.1705 80.4449 22.0128 80.2432 21.8991C80.0443 21.7827 79.8128 21.7244 79.5486 21.7244C79.273 21.7244 79.0287 21.7884 78.8156 21.9162C78.6054 22.0412 78.4406 22.2102 78.3213 22.4233C78.202 22.6335 78.1409 22.8679 78.1381 23.1264V24.196C78.1381 24.5199 78.1977 24.7997 78.317 25.0355C78.4392 25.2713 78.6111 25.4531 78.8327 25.581C79.0542 25.7088 79.317 25.7727 79.621 25.7727C79.8227 25.7727 80.0074 25.7443 80.175 25.6875C80.3426 25.6307 80.4861 25.5455 80.6054 25.4318C80.7247 25.3182 80.8156 25.179 80.8781 25.0142L82.5571 25.125C82.4719 25.5284 82.2971 25.8807 82.0329 26.1818C81.7716 26.4801 81.4335 26.7131 81.0187 26.8807C80.6068 27.0455 80.1309 27.1278 79.5912 27.1278ZM85.5954 23.2159V27H83.7801V20.4545H85.5102V21.6094H85.5869C85.7318 21.2287 85.9747 20.9276 86.3156 20.706C86.6565 20.4815 87.0699 20.3693 87.5557 20.3693C88.0102 20.3693 88.4065 20.4688 88.7446 20.6676C89.0827 20.8665 89.3454 21.1506 89.5329 21.5199C89.7204 21.8864 89.8142 22.3239 89.8142 22.8324V27H87.9988V23.1562C88.0017 22.7557 87.8994 22.4432 87.692 22.2188C87.4846 21.9915 87.1991 21.8778 86.8355 21.8778C86.5912 21.8778 86.3753 21.9304 86.1878 22.0355C86.0031 22.1406 85.8582 22.294 85.7531 22.4957C85.6508 22.6946 85.5983 22.9347 85.5954 23.2159ZM94.7265 20.4545V21.8182H90.7847V20.4545H94.7265ZM91.6796 18.8864H93.4949V24.9886C93.4949 25.1562 93.5205 25.2869 93.5716 25.3807C93.6228 25.4716 93.6938 25.5355 93.7847 25.5724C93.8785 25.6094 93.9864 25.6278 94.1086 25.6278C94.1938 25.6278 94.279 25.6207 94.3643 25.6065C94.4495 25.5895 94.5148 25.5767 94.5603 25.5682L94.8458 26.919C94.7549 26.9474 94.627 26.9801 94.4623 27.017C94.2975 27.0568 94.0972 27.081 93.8614 27.0895C93.4239 27.1065 93.0404 27.0483 92.7108 26.9148C92.3841 26.7812 92.1299 26.5739 91.9481 26.2926C91.7662 26.0114 91.6768 25.6562 91.6796 25.2273V18.8864ZM98.8216 27.1278C98.1483 27.1278 97.5688 26.9915 97.083 26.7188C96.6001 26.4432 96.2279 26.054 95.9665 25.5511C95.7052 25.0455 95.5745 24.4474 95.5745 23.7571C95.5745 23.0838 95.7052 22.4929 95.9665 21.9844C96.2279 21.4759 96.5958 21.0795 97.0702 20.7955C97.5475 20.5114 98.1072 20.3693 98.7492 20.3693C99.181 20.3693 99.583 20.4389 99.9552 20.5781C100.33 20.7145 100.657 20.9205 100.935 21.196C101.217 21.4716 101.435 21.8182 101.592 22.2358C101.748 22.6506 101.826 23.1364 101.826 23.6932V24.1918H96.2989V23.0668H100.117C100.117 22.8054 100.06 22.5739 99.9466 22.3722C99.833 22.1705 99.6753 22.0128 99.4736 21.8991C99.2748 21.7827 99.0432 21.7244 98.779 21.7244C98.5035 21.7244 98.2591 21.7884 98.0461 21.9162C97.8358 22.0412 97.6711 22.2102 97.5518 22.4233C97.4324 22.6335 97.3714 22.8679 97.3685 23.1264V24.196C97.3685 24.5199 97.4282 24.7997 97.5475 25.0355C97.6697 25.2713 97.8415 25.4531 98.0631 25.581C98.2847 25.7088 98.5475 25.7727 98.8515 25.7727C99.0532 25.7727 99.2378 25.7443 99.4055 25.6875C99.5731 25.6307 99.7165 25.5455 99.8358 25.4318C99.9552 25.3182 100.046 25.179 100.109 25.0142L101.788 25.125C101.702 25.5284 101.528 25.8807 101.263 26.1818C101.002 26.4801 100.664 26.7131 100.249 26.8807C99.8373 27.0455 99.3614 27.1278 98.8216 27.1278ZM103.011 27V20.4545H104.771V21.5966H104.839C104.958 21.1903 105.158 20.8835 105.44 20.6761C105.721 20.4659 106.045 20.3608 106.411 20.3608C106.502 20.3608 106.6 20.3665 106.705 20.3778C106.81 20.3892 106.903 20.4048 106.982 20.4247V22.0355C106.897 22.0099 106.779 21.9872 106.628 21.9673C106.478 21.9474 106.34 21.9375 106.215 21.9375C105.948 21.9375 105.709 21.9957 105.499 22.1122C105.292 22.2259 105.127 22.3849 105.005 22.5895C104.886 22.794 104.826 23.0298 104.826 23.2969V27H103.011Z" fill="#16C16F"/>
<rect x="0.600553" y="0.0832315" width="6.61673" height="22.8248" rx="3.30836" transform="matrix(0.70919 -0.70452 0.491916 0.870983 6.14616 7.93592)" fill="url(#paint0_linear_37_7)" stroke="url(#paint1_linear_37_7)"/>
<rect x="0.601325" y="0.0367967" width="14.0005" height="6.81714" rx="3.40857" transform="matrix(0.649521 -0.759887 0.553129 0.83348 14.0559 22.3815)" fill="#16C16F" stroke="#16C16F"/>
<rect x="0.600044" y="0.0974257" width="14.0007" height="6.80636" rx="3.40318" transform="matrix(0.726773 -0.686369 0.473316 0.88122 0.622962 12.6867)" fill="#0F766E" stroke="#0F766E"/>
<defs>
<linearGradient id="paint0_linear_37_7" x1="3.69284" y1="11.5956" x2="0.763719" y2="23.0459" gradientUnits="userSpaceOnUse">
<stop stop-color="#0F766E"/>
<stop offset="0.389717" stop-color="#16C16F"/>
</linearGradient>
<linearGradient id="paint1_linear_37_7" x1="3.80836" y1="0" x2="3.80836" y2="23.8248" gradientUnits="userSpaceOnUse">
<stop stop-color="#0F766E" stop-opacity="0"/>
<stop offset="0.953125" stop-color="#16C16F"/>
</linearGradient>
</defs>
</svg>
